# xmcd
#
# Track frame offsets: 
#        150
#        13592
#        28310
#        42320
#        57914
#        71258
#        84615
#        97411
#        110428
#        125125
#        138530
#        151825
#        167196
#        180512
#        194654
#        208613
#        223060
#        248705
#        262590
#        276715
#        290540
#        303223
#
# Disc length: 4215 seconds
#
# Revision: 0
# Processed by: cddbd v1.5.2PL0 Copyright (c) Steve Scherf et al.
# Submitted via: ExactAudioCopy v0.95b4
#
DISCID=51107516
DTITLE=Saga Blues Records - Voodoo Blues: Hoodoo and Magical Practices
DYEAR=1900
DGENRE=Blues
TTITLE0=Hoodoo Hoodoo - John Lee 'Sonny Boy' Williamson
TTITLE1=Mojoe Blues - Charley Lincoln
TTITLE2=Black Cat Bone Blues - Bobby Leecan and Robert Cooksey
TTITLE3=New Mojo Blues - Barbecue Bob
TTITLE4=Black Cat Bone - Sam 'Lightnin'' Hopkins
TTITLE5=Louisiana Hoo Doo Blues - Ma Rainey
TTITLE6=Low Down Mojo Blues - Blind Lemon Jefferson
TTITLE7=I've Been Tricked - Casey Bill Weldon
TTITLE8=Goofer Dust Swing - Lil Johnson
TTITLE9=The Mojo Blues - Jimmie Gordon
TTITLE10=Somebody Done Hoodooed the Hoodoo Man
TTITLE11=Snake Doctor Blues - JD 'Jelly Jaw' Short
TTITLE12=Hoodoo Women - Johnnie Temple
TTITLE13=Aunt Caroline Dyer Blues - Memphis Jug Band
TTITLE14=Jomo Man Blues -Waymon 'Sloopy' Henry
TTITLE15=Root Doctor Blues - Doctor Clayton
TTITLE16=Seven Sisters Blues - JT 'Funny Paper' Smith
TTITLE17=Hoodoo lady - Memphis Minnie
TTITLE18=Two faced Woman - Curley Weaver
TTITLE19=Hoodoo Lady Blues - Arthur 'Big Boy' Crudup
TTITLE20=Hoo-Doo Say - The Sly Fox
TTITLE21=A Two-Faced Man - James 'Wee Willie' Wayne
EXTD=
EXTT0=
EXTT1=
EXTT2=
EXTT3=
EXTT4=
EXTT5=
EXTT6=
EXTT7=
EXTT8=
EXTT9=
EXTT10=
EXTT11=
EXTT12=
EXTT13=
EXTT14=
EXTT15=
EXTT16=
EXTT17=
EXTT18=
EXTT19=
EXTT20=
EXTT21=
PLAYORDER=
